<svg width="140" height="74" viewBox="0 0 140 74" fill="none" xmlns="http://www.w3.org/2000/svg">
<path d="M6.95716 29.4399C7.5872 28.8362 8.42144 28.4985 9.28947 28.4957C9.9485 28.496 10.6028 28.6086 11.2248 28.8287C11.9359 29.0951 12.6202 29.4296 13.2684 29.8277L15.0368 26.1421C13.3051 25.0815 11.3139 24.5332 9.28947 24.5593C7.59867 24.5313 5.93713 25.0072 4.51207 25.9277C3.04927 26.9278 1.90396 28.3345 1.21435 29.9782C0.392928 31.8307 -0.0211077 33.8414 0.000828238 35.8715C0.000828238 38.0609 0.560222 39.7547 1.67901 40.9528C2.7978 42.1509 4.39327 42.7485 6.46544 42.7454C8.27646 42.7637 10.0708 42.3937 11.7301 41.6598V37.7553C10.9574 38.1015 10.1577 38.3822 9.3391 38.5946C8.68207 38.758 8.00821 38.8423 7.33159 38.8455C6.97318 38.8671 6.61456 38.8066 6.28255 38.6684C5.95053 38.5301 5.65373 38.3178 5.41432 38.0472C4.91657 37.3461 4.67862 36.4903 4.74214 35.6297C4.73163 34.4075 4.93161 33.1928 5.33311 32.0399C5.65355 31.0508 6.21155 30.1575 6.95716 29.4399Z" fill="white"/>
<path d="M29.7344 26.3519C28.5856 25.1568 26.9735 24.5593 24.8984 24.5593C23.1652 24.5268 21.4615 25.0158 20.0037 25.9642C18.5237 26.9832 17.3611 28.4071 16.6518 30.0694C15.8204 31.9128 15.3999 33.9185 15.4203 35.9444C15.4203 38.0731 16.0037 39.7456 17.1706 40.9619C18.3375 42.1783 19.9916 42.7773 22.133 42.7591C23.8589 42.7925 25.5538 42.2928 26.9916 41.3268C28.4478 40.3007 29.5853 38.8769 30.2713 37.2216C31.0808 35.3708 31.487 33.3656 31.4622 31.342C31.4622 29.221 30.8848 27.5469 29.7344 26.3519ZM26.166 35.1234C25.8775 36.1412 25.3603 37.0778 24.6548 37.8602C24.3893 38.1594 24.0665 38.4011 23.7059 38.5704C23.3453 38.7398 22.9544 38.8334 22.557 38.8455C20.9631 38.8455 20.1661 37.8693 20.1661 35.9171C20.1645 34.6762 20.3642 33.4435 20.7571 32.268C21.0696 31.2285 21.611 30.2741 22.3405 29.4764C22.6154 29.165 22.9507 28.914 23.3255 28.739C23.7003 28.5641 24.1067 28.4688 24.5194 28.4592C24.8372 28.4453 25.1534 28.5103 25.4405 28.6487C25.7276 28.7871 25.9767 28.9945 26.166 29.2529C26.582 29.8908 26.783 30.6476 26.739 31.4104C26.7444 32.671 26.551 33.9244 26.166 35.1234Z" fill="white"/>
<path d="M47.7703 26.3519C46.6185 25.1568 45.0065 24.5593 42.9343 24.5593C41.2011 24.5268 39.4974 25.0158 38.0396 25.9642C36.5611 26.9849 35.399 28.4082 34.6877 30.0694C33.8563 31.9128 33.4359 33.9185 33.4562 35.9444C33.4562 38.0731 34.0396 39.7456 35.2065 40.9619C36.3734 42.1783 38.0276 42.7773 40.1689 42.7591C41.8948 42.7925 43.5898 42.2928 45.0275 41.3268C46.4837 40.3007 47.6212 38.8769 48.3072 37.2216C49.1168 35.3708 49.5229 33.3656 49.4981 31.342C49.4981 29.221 48.9207 27.5469 47.7703 26.3519ZM44.211 35.1234C43.9198 36.142 43.3994 37.0787 42.6907 37.8602C42.4262 38.1584 42.1049 38.3993 41.7459 38.5687C41.387 38.738 40.9979 38.8321 40.602 38.8455C39.008 38.8455 38.211 37.8693 38.211 35.9171C38.2088 34.6758 38.41 33.4427 38.8065 32.268C39.1154 31.2269 39.6572 30.2717 40.39 29.4764C40.6637 29.1647 40.998 28.9135 41.3722 28.7384C41.7464 28.5634 42.1522 28.4684 42.5644 28.4592C42.8822 28.4449 43.1986 28.5097 43.4857 28.6482C43.7728 28.7866 44.0219 28.9942 44.211 29.2529C44.627 29.8908 44.8279 30.6476 44.7839 31.4104C44.7893 32.671 44.5959 33.9244 44.211 35.1234Z" fill="white"/>
<path d="M63.5462 26.2059C62.7336 25.5679 61.7716 25.1531 60.7537 25.0017C60.1072 24.888 59.452 24.833 58.7958 24.8375H54.3387L50.644 42.5037H55.3177L55.3989 42.0977L56.5131 36.6241H57.6815C59.9913 36.5998 61.8153 36.022 63.1537 34.8908C64.492 33.7596 65.1747 32.1661 65.2018 30.1105C65.2018 28.4258 64.6499 27.1243 63.5462 26.2059ZM59.8605 32.0673C59.6526 32.2867 59.4034 32.4618 59.1276 32.5824C58.8518 32.703 58.555 32.7667 58.2545 32.7698H57.3522L58.1958 28.6919H58.9041C59.0387 28.6919 59.1731 28.7041 59.3056 28.7284C59.5999 28.7763 59.8725 28.9149 60.086 29.1252C60.235 29.2754 60.3518 29.455 60.4294 29.6527C60.507 29.8504 60.5437 30.0621 60.5372 30.2747C60.5477 30.6039 60.4933 30.932 60.3771 31.2398C60.2609 31.5476 60.0853 31.8289 59.8605 32.0673Z" fill="white"/>
<path d="M99.2977 36.4233H95.9233V36.5647H99.2977V36.4233Z" fill="white"/>
<path d="M129.866 38.704L127.484 49.966C127.338 50.698 127.123 51.4143 126.843 52.1053L129.645 38.704H129.866Z" fill="white"/>
<path d="M132.18 38.704L129.699 50.4404C129.54 51.233 129.312 52.0099 129.018 52.7621L131.959 38.704H132.18Z" fill="white"/>
<path d="M129.866 38.704L127.484 49.966C127.338 50.698 127.123 51.4143 126.843 52.1053L129.645 38.704H129.866Z" fill="white"/>
<path d="M139.443 52.5158L138.631 56.3701H128.255L129.009 52.7712V52.7621L131.95 38.704H136.624L133.741 52.5158H139.443Z" fill="white"/>
<path d="M61.9356 42.604C61.795 42.7259 61.6843 42.8792 61.6123 43.0517C61.5402 43.2243 61.5089 43.4114 61.5206 43.5984C61.525 44.002 61.6668 44.3918 61.9221 44.7022C62.3776 45.2151 62.8891 45.6742 63.4469 46.0706C64.2825 46.6608 64.994 47.4127 65.5401 48.2829C66.002 49.0902 66.2375 50.0096 66.2213 50.9421C66.2213 52.7302 65.6349 54.1214 64.4619 55.1158C63.964 55.5378 63.3958 55.8668 62.7838 56.0874C62.0008 56.3749 61.1797 56.5425 60.3477 56.5846C60.0951 56.5846 59.8334 56.5846 59.5627 56.5846C58.7252 56.5907 57.8902 56.4911 57.077 56.2881C56.3595 56.1197 55.6759 55.8281 55.056 55.426V51.225C55.7769 51.6757 56.5495 52.0356 57.3567 52.2969C57.5823 52.3744 57.8079 52.4383 58.0154 52.493C58.5669 52.6455 59.1353 52.7268 59.7071 52.7348C60.0038 52.7419 60.2996 52.6987 60.5823 52.607C60.7464 52.5538 60.8994 52.4703 61.0334 52.3607C61.1858 52.2308 61.306 52.0666 61.3843 51.8812C61.4626 51.6959 61.497 51.4945 61.4845 51.2934C61.4871 51.0821 61.4375 50.8736 61.3402 50.6867C61.2323 50.4781 61.0956 50.2861 60.9341 50.1165C60.7582 49.9295 60.289 49.5099 59.5266 48.8667C59.256 48.6478 59.0033 48.4106 58.7778 48.2008C58.2676 47.7189 57.834 47.1604 57.4921 46.545C57.1991 45.9976 57.0065 45.4011 56.9237 44.7843C56.8795 44.5083 56.8584 44.2291 56.8605 43.9496C56.8465 42.9874 57.0963 42.0401 57.5823 41.2128C57.5983 41.1744 57.6179 41.1378 57.6409 41.1033C57.749 40.93 57.868 40.7639 57.9973 40.6061C58.4974 39.9821 59.1315 39.4813 59.8514 39.1419C60.8524 38.6705 61.9458 38.4335 63.0499 38.4486C64.8456 38.4228 66.6174 38.8675 68.1927 39.7394L66.5912 43.3338C65.5284 42.7132 64.338 42.3495 63.1131 42.271C62.6945 42.2431 62.2791 42.3606 61.9356 42.604Z" fill="white"/>
<path d="M79.8047 42.531L80.5806 38.704H70.2047L66.51 56.3701H76.8859L77.6979 52.4793H72.0002L72.6814 49.1449H77.9866L78.8483 45.3134H73.534L74.0979 42.531H79.8047Z" fill="white"/>
<path d="M108.203 38.7041L102.487 51.2478H102.406V38.7041H96.1985L92.5895 55.978L92.2737 55.2117L91.0422 52.3471L89.5986 48.9808C90.6394 48.5513 91.5211 47.8033 92.1204 46.8416C92.1646 46.7731 92.2038 46.7014 92.2377 46.6272C92.7356 45.6836 92.9856 44.6266 92.964 43.5574C92.964 43.4342 92.964 43.3111 92.964 43.1925C92.9649 42.5609 92.8216 41.9377 92.5454 41.3712C92.2692 40.8048 91.8675 40.3104 91.3715 39.9265C90.3068 39.1116 88.767 38.7041 86.752 38.7041H82.128L78.4333 56.3702H83.1069L84.4603 49.9433H85.3309L87.6633 56.3702H96.6857L98.0391 49.8794C98.1925 49.1192 98.5353 47.0575 99.0677 43.6942H99.1624V56.3702H103.588L109.349 43.6942H109.444L109.263 44.4651C108.788 46.1437 108.35 47.8952 107.95 49.7198L107.251 53.0313L106.552 56.352H110.747L111.776 51.517L111.916 50.851L113.332 44.1549L114.487 38.6813L108.203 38.7041ZM87.6272 45.6921C87.3852 45.9184 87.1009 46.0935 86.791 46.2071C86.4811 46.3207 86.1519 46.3705 85.8227 46.3535H85.2091L86.0482 42.3167H86.6798C87.1163 42.2859 87.5477 42.4264 87.8843 42.709C88.0282 42.8592 88.1391 43.0384 88.2099 43.2349C88.2806 43.4314 88.3095 43.6407 88.2948 43.8493C88.3158 44.1865 88.2672 44.5243 88.1523 44.8415C88.0374 45.1588 87.8585 45.4484 87.6272 45.6921Z" fill="white"/>
<path d="M129.645 38.704L126.843 52.1053C127.123 51.4143 127.338 50.698 127.484 49.966L129.866 38.704H129.645Z" fill="white"/>
<path d="M129.645 38.704L126.843 52.1053C126.41 53.2207 125.708 54.2086 124.8 54.9789C123.479 56.0615 121.683 56.6028 119.409 56.6028C118.428 56.6235 117.457 56.3962 116.585 55.9414C115.791 55.5174 115.135 54.8714 114.695 54.0803C114.298 53.3582 114.074 52.5521 114.04 51.7267C114.04 51.6218 114.04 51.5214 114.04 51.4119C114.042 50.8886 114.09 50.3665 114.185 49.8519L115.055 45.7467L116.562 38.6766H121.236L118.89 49.7197C118.792 50.1695 118.736 50.6276 118.723 51.0881C118.723 52.1159 119.206 52.6283 120.171 52.6253C120.505 52.6412 120.837 52.5792 121.143 52.4439C121.449 52.3086 121.72 52.1037 121.935 51.8453C122.439 51.1378 122.773 50.3208 122.91 49.4597L125.192 38.6675L129.645 38.704Z" fill="white"/>
<path d="M133.741 52.5158L136.624 38.704H131.95L129.022 52.7621L128.269 56.361H138.645L139.457 52.5067L133.741 52.5158Z" fill="white"/>
<path d="M22.8999 73.4069H13.5887L25.0608 55.0474H16.3947L17.9014 47.9316H36.2351L35.1434 52.9126L22.8999 73.4069ZM16.8638 71.5823H21.8849L33.4472 52.2376L33.9885 49.7562H19.3631L18.6277 53.2228H28.3314L16.8638 71.5823Z" fill="white"/>
<path d="M82.3282 66.0462C82.3282 67.0013 82.1576 67.8268 81.8165 68.5225C81.4754 69.2183 81.0074 69.7548 80.4126 70.1322C79.8178 70.5095 79.1385 70.6982 78.3746 70.6982C77.6107 70.6982 76.9313 70.5095 76.3365 70.1322C75.7417 69.7548 75.2738 69.2183 74.9327 68.5225C74.5915 67.8268 74.421 67.0013 74.421 66.0462C74.421 65.091 74.5915 64.2656 74.9327 63.5698C75.2738 62.8741 75.7417 62.3375 76.3365 61.9602C76.9313 61.5828 77.6107 61.3942 78.3746 61.3942C79.1385 61.3942 79.8178 61.5828 80.4126 61.9602C81.0074 62.3375 81.4754 62.8741 81.8165 63.5698C82.1576 64.2656 82.3282 65.091 82.3282 66.0462ZM81.2786 66.0462C81.2786 65.262 81.1488 64.6002 80.8893 64.0607C80.6327 63.5212 80.2843 63.1129 79.8441 62.8358C79.4067 62.5586 78.9169 62.4201 78.3746 62.4201C77.8323 62.4201 77.341 62.5586 76.9007 62.8358C76.4634 63.1129 76.115 63.5212 75.8555 64.0607C75.5989 64.6002 75.4706 65.262 75.4706 66.0462C75.4706 66.8304 75.5989 67.4922 75.8555 68.0317C76.115 68.5712 76.4634 68.9795 76.9007 69.2566C77.341 69.5337 77.8323 69.6723 78.3746 69.6723C78.9169 69.6723 79.4067 69.5337 79.8441 69.2566C80.2843 68.9795 80.6327 68.5712 80.8893 68.0317C81.1488 67.4922 81.2786 66.8304 81.2786 66.0462Z" fill="white"/>
<path d="M66.7521 62.4908V61.5179H73.4698V62.4908H70.6532V70.5743H69.5686V62.4908H66.7521Z" fill="white"/>
<path d="M64.2865 63.7821C64.2341 63.334 64.0212 62.9861 63.648 62.7385C63.2748 62.4908 62.8171 62.367 62.2747 62.367C61.8782 62.367 61.5313 62.4319 61.2339 62.5616C60.9394 62.6913 60.709 62.8697 60.5428 63.0967C60.3796 63.3237 60.2979 63.5816 60.2979 63.8705C60.2979 64.1123 60.3548 64.3201 60.4685 64.494C60.5851 64.665 60.7338 64.808 60.9146 64.923C61.0954 65.035 61.2849 65.1279 61.4831 65.2016C61.6814 65.2723 61.8636 65.3298 62.0298 65.374L62.9395 65.6217C63.1728 65.6836 63.4323 65.7691 63.718 65.8781C64.0066 65.9872 64.2822 66.1361 64.5446 66.3248C64.8099 66.5105 65.0286 66.7493 65.2006 67.0411C65.3726 67.333 65.4586 67.6912 65.4586 68.1157C65.4586 68.6051 65.3318 69.0473 65.0781 69.4423C64.8274 69.8374 64.46 70.1513 63.976 70.3842C63.4949 70.6171 62.9104 70.7336 62.2223 70.7336C61.5808 70.7336 61.0254 70.6289 60.556 70.4196C60.0895 70.2103 59.7221 69.9184 59.4539 69.544C59.1885 69.1696 59.0384 68.7348 59.0034 68.2395H60.123C60.1522 68.5815 60.2659 68.8645 60.4641 69.0886C60.6653 69.3097 60.919 69.4747 61.2251 69.5838C61.5342 69.69 61.8666 69.743 62.2223 69.743C62.6363 69.743 63.008 69.6752 63.3375 69.5396C63.667 69.401 63.9279 69.2094 64.1203 68.9647C64.3128 68.7171 64.409 68.4282 64.409 68.098C64.409 67.7973 64.3259 67.5526 64.1597 67.3639C63.9935 67.1753 63.7748 67.022 63.5037 66.9041C63.2325 66.7861 62.9395 66.683 62.6246 66.5945L61.5225 66.2761C60.8228 66.0727 60.2688 65.7823 59.8606 65.405C59.4524 65.0276 59.2483 64.5338 59.2483 63.9236C59.2483 63.4165 59.3839 62.9743 59.655 62.597C59.9291 62.2167 60.2965 61.9219 60.7571 61.7126C61.2207 61.5003 61.7383 61.3942 62.3097 61.3942C62.887 61.3942 63.4002 61.4988 63.8492 61.7081C64.2982 61.9145 64.6539 62.1975 64.9163 62.5572C65.1816 62.9168 65.3216 63.3251 65.3362 63.7821H64.2865Z" fill="white"/>
<path d="M57.5645 66.0462C57.5645 67.0013 57.394 67.8268 57.0528 68.5225C56.7117 69.2183 56.2437 69.7548 55.6489 70.1322C55.0541 70.5095 54.3748 70.6982 53.6109 70.6982C52.847 70.6982 52.1677 70.5095 51.5729 70.1322C50.9781 69.7548 50.5101 69.2183 50.169 68.5225C49.8279 67.8268 49.6573 67.0013 49.6573 66.0462C49.6573 65.091 49.8279 64.2656 50.169 63.5698C50.5101 62.8741 50.9781 62.3375 51.5729 61.9602C52.1677 61.5828 52.847 61.3942 53.6109 61.3942C54.3748 61.3942 55.0541 61.5828 55.6489 61.9602C56.2437 62.3375 56.7117 62.8741 57.0528 63.5698C57.394 64.2656 57.5645 65.091 57.5645 66.0462ZM56.5149 66.0462C56.5149 65.262 56.3851 64.6002 56.1256 64.0607C55.8691 63.5212 55.5207 63.1129 55.0804 62.8358C54.643 62.5586 54.1532 62.4201 53.6109 62.4201C53.0686 62.4201 52.5773 62.5586 52.137 62.8358C51.6997 63.1129 51.3513 63.5212 51.0918 64.0607C50.8352 64.6002 50.7069 65.262 50.7069 66.0462C50.7069 66.8304 50.8352 67.4922 51.0918 68.0317C51.3513 68.5712 51.6997 68.9795 52.137 69.2566C52.5773 69.5337 53.0686 69.6723 53.6109 69.6723C54.1532 69.6723 54.643 69.5337 55.0804 69.2566C55.5207 68.9795 55.8691 68.5712 56.1256 68.0317C56.3851 67.4922 56.5149 66.8304 56.5149 66.0462Z" fill="white"/>
<path d="M46.9775 64.3481C46.8812 64.0504 46.7544 63.7836 46.597 63.5477C46.4424 63.3089 46.2573 63.1055 46.0415 62.9375C45.8287 62.7694 45.5867 62.6412 45.3155 62.5527C45.0444 62.4643 44.747 62.4201 44.4234 62.4201C43.8927 62.4201 43.4102 62.5586 42.9757 62.8358C42.5413 63.1129 42.1958 63.5212 41.9392 64.0607C41.6827 64.6002 41.5544 65.262 41.5544 66.0462C41.5544 66.8304 41.6841 67.4922 41.9436 68.0317C42.2031 68.5712 42.5544 68.9795 42.9976 69.2566C43.4408 69.5337 43.9394 69.6723 44.4933 69.6723C45.0065 69.6723 45.4584 69.5617 45.8491 69.3406C46.2427 69.1166 46.5489 68.8011 46.7675 68.3943C46.9891 67.9845 47.0999 67.5025 47.0999 66.9483L47.4323 67.019H44.7382V66.0462H48.1496V67.019C48.1496 67.7649 47.9921 68.4135 47.6772 68.9647C47.3652 69.516 46.9337 69.9435 46.3827 70.2471C45.8345 70.5478 45.2048 70.6982 44.4933 70.6982C43.7003 70.6982 43.0034 70.5095 42.4028 70.1322C41.8051 69.7548 41.3386 69.2183 41.0033 68.5225C40.6709 67.8268 40.5047 67.0013 40.5047 66.0462C40.5047 65.3298 40.5995 64.6857 40.789 64.1137C40.9814 63.5389 41.2526 63.0495 41.6025 62.6456C41.9523 62.2417 42.3664 61.9322 42.8445 61.717C43.3227 61.5018 43.849 61.3942 44.4234 61.3942C44.8957 61.3942 45.336 61.4664 45.7441 61.6108C46.1553 61.7524 46.5212 61.9543 46.8419 62.2167C47.1655 62.4761 47.4352 62.7871 47.651 63.1497C47.8667 63.5094 48.0154 63.9088 48.0971 64.3481H46.9775Z" fill="white"/>
<path d="M33.3202 70.5743H32.1831L35.472 61.5179H36.5916L39.8804 70.5743H38.7433L36.0667 62.9507H35.9968L33.3202 70.5743ZM33.7401 67.0367H38.3235V68.0095H33.7401V67.0367Z" fill="white"/>
<path d="M45.4936 55.9186V48.9521H49.6518V49.7005H46.3279V52.0544H49.4365V52.8027H46.3279V55.1702H49.7056V55.9186H45.4936Z" fill="white"/>
<path d="M40.8106 55.9186H38.6844V48.9521H40.9048C41.5732 48.9521 42.1451 49.0916 42.6206 49.3705C43.096 49.6472 43.4605 50.0452 43.7139 50.5645C43.9674 51.0815 44.0941 51.7006 44.0941 52.4218C44.0941 53.1474 43.9663 53.7722 43.7106 54.296C43.4549 54.8176 43.0826 55.219 42.5937 55.5002C42.1047 55.7791 41.5104 55.9186 40.8106 55.9186ZM39.5188 55.1702H40.7568C41.3265 55.1702 41.7986 55.0591 42.1731 54.8369C42.5477 54.6147 42.8269 54.2983 43.0108 53.8879C43.1947 53.4774 43.2867 52.9887 43.2867 52.4218C43.2867 51.8594 43.1958 51.3752 43.0142 50.9693C42.8325 50.5611 42.5611 50.2482 42.2 50.0305C41.839 49.8105 41.3893 49.7005 40.851 49.7005H39.5188V55.1702Z" fill="white"/>
<path d="M120.627 70.645C120.411 70.645 120.226 70.5669 120.071 70.4107C119.917 70.2544 119.84 70.0672 119.84 69.8491C119.84 69.6309 119.917 69.4437 120.071 69.2875C120.226 69.1312 120.411 69.0531 120.627 69.0531C120.843 69.0531 121.028 69.1312 121.182 69.2875C121.337 69.4437 121.414 69.6309 121.414 69.8491C121.414 69.9935 121.378 70.1262 121.305 70.2471C121.235 70.3679 121.14 70.4652 121.02 70.5389C120.904 70.6097 120.773 70.645 120.627 70.645Z" fill="white"/>
<path d="M108.595 70.5743H107.458L110.747 61.5179H111.867L115.156 70.5743H114.019L111.342 62.9507H111.272L108.595 70.5743ZM109.015 67.0367H113.599V68.0095H109.015V67.0367Z" fill="white"/>
<path d="M102.561 70.5743H99.7971V61.5179H102.684C103.552 61.5179 104.296 61.6992 104.914 62.0619C105.532 62.4215 106.006 62.9389 106.335 63.614C106.665 64.2862 106.83 65.091 106.83 66.0284C106.83 66.9718 106.663 67.784 106.331 68.465C105.999 69.1431 105.515 69.6649 104.879 70.0304C104.243 70.393 103.471 70.5743 102.561 70.5743ZM100.882 69.6015H102.491C103.232 69.6015 103.845 69.457 104.332 69.1681C104.819 68.8792 105.182 68.468 105.421 67.9344C105.66 67.4008 105.78 66.7655 105.78 66.0284C105.78 65.2973 105.662 64.6679 105.426 64.1402C105.19 63.6096 104.837 63.2028 104.367 62.9197C103.898 62.6338 103.313 62.4908 102.614 62.4908H100.882V69.6015Z" fill="white"/>
<path d="M91.4055 62.4908V61.5179H98.1231V62.4908H95.3066V70.5743H94.222V62.4908H91.4055Z" fill="white"/>
<path d="M86.1584 70.5743V61.5179H87.243V69.6015H91.4066V70.5743H86.1584Z" fill="white"/>
<path d="M87.4287 33.8918H80.6618V36.5648H77.2829V33.8918H71.0574L83.7565 10.9436L87.4287 33.8918Z" fill="white"/>
<path d="M106.065 33.8918H99.2977V36.5648H95.9233V33.8918H89.6933L102.392 10.9436L106.065 33.8918Z" fill="white"/>
<path d="M109.692 5.72081C96.9068 -4.6563 76.5205 -0.5237 64.2454 14.9393C62.3662 17.3004 60.7433 19.8588 59.4048 22.5705C60.2029 22.5968 60.9963 22.7038 61.7732 22.8898C62.9729 20.5829 64.39 18.3985 66.0048 16.367C73.2634 7.22606 83.4949 2.28154 93.0271 2.28154C98.5495 2.19914 103.932 4.04002 108.271 7.49518C114.284 12.3804 117.293 19.8519 117.293 27.921C117.286 30.79 116.92 33.6467 116.206 36.4234H118.525C121.353 24.6642 118.353 12.7727 109.692 5.72081Z" fill="white"/>
</svg>
