<svg xmlns="http://www.w3.org/2000/svg" viewBox="0 0 309.1 164.46"><defs><style>.cls-1{fill:#1b1464;}.cls-2,.cls-3,.cls-4,.cls-5{fill:#39b54a;}.cls-3,.cls-5{font-size:27.3px;}.cls-3,.cls-4,.cls-5{font-family:OpenSans-ExtraboldItalic, Open Sans;font-weight:800;font-style:italic;}.cls-3{letter-spacing:0.01em;}.cls-4{font-size:21px;letter-spacing:0em;}.cls-5{letter-spacing:-0.05em;}</style></defs><g id="Layer_2" data-name="Layer 2"><g id="Layer_2-2" data-name="Layer 2"><path class="cls-1" d="M15.42,64.54a7.55,7.55,0,0,1,5.17-2.07,13,13,0,0,1,4.29.73,26.4,26.4,0,0,1,4.53,2.19l3.92-8.08a24,24,0,0,0-12.74-3.47,19.09,19.09,0,0,0-10.59,3,20.28,20.28,0,0,0-7.31,8.88A30.76,30.76,0,0,0,0,78.64q0,7.2,3.72,11.14t10.61,3.93A28.41,28.41,0,0,0,26,91.33V82.77a33.86,33.86,0,0,1-5.3,1.84,19,19,0,0,1-4.45.55A5.28,5.28,0,0,1,12,83.41a8.06,8.06,0,0,1-1.49-5.3,23.09,23.09,0,0,1,1.31-7.87A13.8,13.8,0,0,1,15.42,64.54Z"/><path class="cls-1" d="M65.91,57.77q-3.82-3.93-10.72-3.93a19.39,19.39,0,0,0-10.85,3.08,20.91,20.91,0,0,0-7.43,9A30.3,30.3,0,0,0,34.18,78.8q0,7,3.88,11t11,3.94A18.81,18.81,0,0,0,59.83,90.6a20.74,20.74,0,0,0,7.27-9,30.92,30.92,0,0,0,2.64-12.89C69.74,64.06,68.46,60.39,65.91,57.77ZM58,77A15.07,15.07,0,0,1,54.65,83,6.51,6.51,0,0,1,50,85.16q-5.3,0-5.3-6.42a24.89,24.89,0,0,1,1.31-8,15.77,15.77,0,0,1,3.51-6.12,6.68,6.68,0,0,1,4.83-2.23A4.31,4.31,0,0,1,58,64.13a7.77,7.77,0,0,1,1.27,4.73A26,26,0,0,1,58,77Z"/><path class="cls-1" d="M105.89,57.77q-3.83-3.93-10.72-3.93a19.39,19.39,0,0,0-10.85,3.08,21,21,0,0,0-7.43,9A30.3,30.3,0,0,0,74.16,78.8q0,7,3.88,11t11,3.94A18.81,18.81,0,0,0,99.81,90.6a20.74,20.74,0,0,0,7.27-9,30.92,30.92,0,0,0,2.64-12.89C109.72,64.06,108.44,60.39,105.89,57.77ZM98,77A15.07,15.07,0,0,1,94.63,83,6.51,6.51,0,0,1,90,85.16q-5.3,0-5.3-6.42a24.63,24.63,0,0,1,1.32-8,15.52,15.52,0,0,1,3.51-6.12,6.64,6.64,0,0,1,4.82-2.23A4.3,4.3,0,0,1,98,64.13a7.77,7.77,0,0,1,1.27,4.73A26,26,0,0,1,98,77Z"/><path class="cls-1" d="M140.86,57.45a13.23,13.23,0,0,0-6.19-2.64,24.34,24.34,0,0,0-4.34-.36h-9.88l-8.19,38.73h10.36l.18-.89,2.47-12h2.59q7.68-.08,12.13-3.8t4.54-10.48Q144.53,60.47,140.86,57.45ZM132.69,70.3a5,5,0,0,1-3.56,1.54h-2L129,62.9h1.57a5,5,0,0,1,.89.08,3.21,3.21,0,0,1,1.73.87,3.41,3.41,0,0,1,1,2.52A5.44,5.44,0,0,1,132.69,70.3Z"/><rect x="212.63" y="79.85" width="7.48" height="0.31"/><path d="M287.87,84.85l-5.28,24.69a25.85,25.85,0,0,1-1.42,4.69l6.21-29.38Z"/><path d="M293,84.85l-5.5,25.73a30.28,30.28,0,0,1-1.51,5.09l6.52-30.82Z"/><path d="M287.87,84.85l-5.28,24.69a25.85,25.85,0,0,1-1.42,4.69l6.21-29.38Z"/><polygon points="309.1 115.13 307.3 123.58 284.3 123.58 285.97 115.69 285.97 115.67 292.49 84.85 302.85 84.85 296.46 115.13 309.1 115.13"/><path class="cls-1" d="M137.29,93.4a2.65,2.65,0,0,0-.92,2.18,3.85,3.85,0,0,0,.89,2.42,20,20,0,0,0,3.38,3,17.08,17.08,0,0,1,4.64,4.85,11.25,11.25,0,0,1,1.51,5.83q0,5.88-3.9,9.15a12.13,12.13,0,0,1-3.72,2.13,18.53,18.53,0,0,1-5.4,1.09c-.56,0-1.14,0-1.74,0a22.31,22.31,0,0,1-5.51-.65,14.27,14.27,0,0,1-4.48-1.89V112.3a23.07,23.07,0,0,0,5.1,2.35c.5.17,1,.31,1.46.43a15,15,0,0,0,3.75.53,5.89,5.89,0,0,0,1.94-.28,3.09,3.09,0,0,0,1-.54,2.83,2.83,0,0,0,1-2.34,2.78,2.78,0,0,0-.32-1.33,5.43,5.43,0,0,0-.9-1.25c-.39-.41-1.43-1.33-3.12-2.74-.6-.48-1.16-1-1.66-1.46a15.06,15.06,0,0,1-2.85-3.63,11.31,11.31,0,0,1-1.26-3.86,10.94,10.94,0,0,1-.14-1.83,11.42,11.42,0,0,1,1.6-6,1.41,1.41,0,0,1,.13-.24,10.41,10.41,0,0,1,.79-1.09,11.6,11.6,0,0,1,4.11-3.21,16.27,16.27,0,0,1,7.09-1.52,23.06,23.06,0,0,1,11.4,2.83L147.61,95a17.65,17.65,0,0,0-7.71-2.33A4.08,4.08,0,0,0,137.29,93.4Z"/><path class="cls-1" d="M176.9,93.24l1.72-8.39h-23l-8.19,38.73h23l1.8-8.53H159.6l1.51-7.31h11.76l1.91-8.4H163l1.25-6.1Z"/><path class="cls-1" d="M239.85,84.85l-12.67,27.5H227V84.85H213.24l-8,37.87-.7-1.68-2.73-6.28h0l-3.2-7.38a11.94,11.94,0,0,0,5.59-4.69,3.67,3.67,0,0,0,.26-.47h0a13.7,13.7,0,0,0,1.61-6.73c0-.27,0-.54,0-.8h0a9,9,0,0,0-3.53-7.16Q199,84.85,192.3,84.85H182.05l-8.19,38.73h10.36l3-14.09h1.93l5.17,14.09h20l3-14.23q.51-2.5,2.28-13.56h.21v27.79h9.81l12.77-27.79h.21l-.4,1.69Q240.62,103,239.29,109l-1.55,7.26-1.55,7.28h9.3l2.28-10.6v0l.31-1.46,3.14-14.68,2.56-12Zm-45.61,15.32a5.48,5.48,0,0,1-4,1.45h-1.36l1.86-8.85h1.4a3.77,3.77,0,0,1,2.67.86,3.26,3.26,0,0,1,.91,2.5A5.35,5.35,0,0,1,194.24,100.17Z"/><path class="cls-1" d="M287.38,84.85l-6.21,29.38a25.85,25.85,0,0,0,1.42-4.69l5.28-24.69Z"/><path class="cls-1" d="M287.38,84.85l-6.21,29.38s0,0,0,0a15.73,15.73,0,0,1-4.53,6.3q-4.39,3.56-11.95,3.56a13.06,13.06,0,0,1-6.26-1.45,10.36,10.36,0,0,1-4.19-4.08,11.59,11.59,0,0,1-1.45-5.16h0c0-.23,0-.45,0-.69a19,19,0,0,1,.32-3.42l1.93-9,3.34-15.5h10.36L263.54,109a16,16,0,0,0-.37,3q0,3.38,3.21,3.37a4.81,4.81,0,0,0,3.91-1.71,12.26,12.26,0,0,0,2.16-5.23l5.06-23.66Z"/><path class="cls-1" d="M296.46,115.13l6.39-30.28H292.49L286,115.67v0l-1.67,7.89h23l1.8-8.45Z"/><path class="cls-2" d="M50.76,160.93H30.12l25.43-40.25H36.34l3.34-15.6H80.32L77.9,116Zm-13.38-4H48.51l25.63-42.41,1.2-5.44H42.92l-1.63,7.6H62.8Z"/><text class="cls-3" transform="translate(70.64 156.02)">AGOSTO</text><text class="cls-4" transform="translate(83.9 123.59)">DE</text><text class="cls-5" transform="translate(188.58 156.02)">LTDA .</text><text/><polygon class="cls-2" points="193.8 74.3 178.8 74.3 178.8 80.16 171.31 80.16 171.31 74.3 157.51 74.3 185.66 23.99 193.8 74.3"/><polygon class="cls-2" points="235.11 74.3 220.11 74.3 220.11 80.16 212.63 80.16 212.63 74.3 198.82 74.3 226.97 23.99 235.11 74.3"/><path class="cls-2" d="M243.15,12.54C214.81-10.21,169.62-1.15,142.41,32.75a92.73,92.73,0,0,0-10.73,16.73,26.54,26.54,0,0,1,5.25.7,88.78,88.78,0,0,1,9.38-14.3C162.4,15.84,185.08,5,206.21,5A53.34,53.34,0,0,1,240,16.43c13.33,10.71,20,27.09,20,44.78a74.81,74.81,0,0,1-2.41,18.64h5.14C269,54.07,262.35,28,243.15,12.54Z"/></g></g></svg>